<svg width="164" height="164" viewBox="0 0 164 164" fill="none" xmlns="http://www.w3.org/2000/svg">
<path d="M41.3417 28.29L38.6767 25.625C36.0117 22.96 31.7067 23.0283 29.11 25.625L29.0417 25.6933C26.3767 28.3583 26.3767 32.6633 29.0417 35.26L31.7067 37.925C34.3717 40.59 38.6083 40.59 41.2733 37.925L41.3417 37.8566C44.0067 35.26 44.0067 30.8866 41.3417 28.29V28.29ZM20.5683 71.75H13.5983C9.83999 71.75 6.83333 74.7566 6.83333 78.515V78.5833C6.83333 82.3416 9.83999 85.3483 13.5983 85.3483H20.5C24.3267 85.4166 27.3333 82.41 27.3333 78.6516V78.5833C27.3333 74.7566 24.3267 71.75 20.5683 71.75ZM82.0683 3.7583H82C78.1733 3.7583 75.1667 6.76497 75.1667 10.5233V17.0833C75.1667 20.8416 78.1733 23.8483 81.9317 23.8483H82C85.8267 23.9166 88.8333 20.91 88.8333 17.1516V10.5233C88.8333 6.76497 85.8267 3.7583 82.0683 3.7583V3.7583ZM134.958 25.6933C132.293 23.0283 127.988 23.0283 125.323 25.625L122.658 28.29C119.993 30.955 119.993 35.26 122.658 37.8566L122.727 37.925C125.392 40.59 129.697 40.59 132.293 37.925L134.958 35.26C137.623 32.595 137.623 28.3583 134.958 25.6933V25.6933ZM122.59 128.877L125.255 131.542C127.92 134.207 132.225 134.207 134.89 131.542C137.555 128.877 137.555 124.572 134.89 121.907L132.225 119.242C129.56 116.577 125.255 116.645 122.658 119.242C119.925 121.975 119.925 126.212 122.59 128.877ZM136.667 78.515V78.5833C136.667 82.3416 139.673 85.3483 143.432 85.3483H150.333C154.092 85.3483 157.098 82.3416 157.098 78.5833V78.515C157.098 74.7566 154.092 71.75 150.333 71.75H143.432C139.673 71.75 136.667 74.7566 136.667 78.515ZM82 37.5833C59.3817 37.5833 41 55.965 41 78.5833C41 101.202 59.3817 119.583 82 119.583C104.618 119.583 123 101.202 123 78.5833C123 55.965 104.618 37.5833 82 37.5833ZM81.9317 153.408H82C85.7583 153.408 88.765 150.402 88.765 146.643V140.083C88.765 136.325 85.7583 133.318 82 133.318H81.9317C78.1733 133.318 75.1667 136.325 75.1667 140.083V146.643C75.1667 150.402 78.1733 153.408 81.9317 153.408ZM29.0417 131.473C31.7067 134.138 36.0117 134.138 38.6767 131.473L41.3417 128.808C44.0067 126.143 43.9383 121.838 41.3417 119.242L41.2733 119.173C38.6083 116.508 34.3033 116.508 31.6383 119.173L28.9733 121.838C26.3767 124.572 26.3767 128.808 29.0417 131.473Z" fill="#FEC73B"/>
</svg>
