<svg width="40" height="40" viewBox="0 0 40 40" fill="none" xmlns="http://www.w3.org/2000/svg">
<path d="M31.75 8.1835C28.6334 5.05016 24.4834 3.3335 20.0667 3.3335C10.9667 3.3335 3.55002 10.7502 3.55002 19.8502C3.55002 22.7668 4.31669 25.6002 5.75002 28.1002L3.41669 36.6668L12.1667 34.3668C14.5834 35.6835 17.3 36.3835 20.0667 36.3835C29.1667 36.3835 36.5834 28.9668 36.5834 19.8668C36.5834 15.4502 34.8667 11.3002 31.75 8.1835ZM20.0667 33.5835C17.6 33.5835 15.1834 32.9168 13.0667 31.6668L12.5667 31.3668L7.36669 32.7335L8.75002 27.6668L8.41669 27.1502C7.05002 24.9668 6.31669 22.4335 6.31669 19.8502C6.31669 12.2835 12.4834 6.11683 20.05 6.11683C23.7167 6.11683 27.1667 7.55016 29.75 10.1502C32.35 12.7502 33.7667 16.2002 33.7667 19.8668C33.8 27.4335 27.6334 33.5835 20.0667 33.5835ZM27.6 23.3168C27.1834 23.1168 25.15 22.1168 24.7834 21.9668C24.4 21.8335 24.1334 21.7668 23.85 22.1668C23.5667 22.5835 22.7834 23.5168 22.55 23.7835C22.3167 24.0668 22.0667 24.1002 21.65 23.8835C21.2334 23.6835 19.9 23.2335 18.3334 21.8335C17.1 20.7335 16.2834 19.3835 16.0334 18.9668C15.8 18.5502 16 18.3335 16.2167 18.1168C16.4 17.9335 16.6334 17.6335 16.8334 17.4002C17.0334 17.1668 17.1167 16.9835 17.25 16.7168C17.3834 16.4335 17.3167 16.2002 17.2167 16.0002C17.1167 15.8002 16.2834 13.7668 15.95 12.9335C15.6167 12.1335 15.2667 12.2335 15.0167 12.2168C14.7667 12.2168 14.5 12.2168 14.2167 12.2168C13.9334 12.2168 13.5 12.3168 13.1167 12.7335C12.75 13.1502 11.6834 14.1502 11.6834 16.1835C11.6834 18.2168 13.1667 20.1835 13.3667 20.4502C13.5667 20.7335 16.2834 24.9002 20.4167 26.6835C21.4 27.1168 22.1667 27.3668 22.7667 27.5502C23.75 27.8668 24.65 27.8168 25.3667 27.7168C26.1667 27.6002 27.8167 26.7168 28.15 25.7502C28.5 24.7835 28.5 23.9668 28.3834 23.7835C28.2667 23.6002 28.0167 23.5168 27.6 23.3168Z" fill="white"/>
</svg>
